<mxfile host="Electron" agent="Mozilla/5.0 (Windows NT 10.0; Win64; x64) AppleWebKit/537.36 (KHTML, like Gecko) draw.io/24.7.17 Chrome/128.0.6613.36 Electron/32.0.1 Safari/537.36" version="24.7.17">
  <diagram name="Page-1" id="I-RFczRvF9YDNIzKEl1O">
    <mxGraphModel dx="1434" dy="836" grid="1" gridSize="10" guides="1" tooltips="1" connect="1" arrows="1" fold="1" page="1" pageScale="1" pageWidth="850" pageHeight="1100" math="0" shadow="0">
      <root>
        <mxCell id="0" />
        <mxCell id="1" parent="0" />
        <mxCell id="ik8RGoKKq35oZd-V-prC-1" value="" style="edgeStyle=orthogonalEdgeStyle;rounded=0;orthogonalLoop=1;jettySize=auto;html=1;shadow=0;entryX=0.5;entryY=0;entryDx=0;entryDy=0;" edge="1" parent="1" source="ik8RGoKKq35oZd-V-prC-2" target="Fzv8mW8F8iBXK9Y_Jlp3-1">
          <mxGeometry relative="1" as="geometry">
            <mxPoint x="240" y="80" as="targetPoint" />
          </mxGeometry>
        </mxCell>
        <mxCell id="ik8RGoKKq35oZd-V-prC-2" value="&lt;p&gt;&lt;font style=&quot;font-size: 16px;&quot; face=&quot;Tahoma&quot;&gt;Start&lt;/font&gt;&lt;/p&gt;" style="ellipse;whiteSpace=wrap;html=1;shadow=0;" vertex="1" parent="1">
          <mxGeometry x="160" width="160" height="80" as="geometry" />
        </mxCell>
        <mxCell id="Fzv8mW8F8iBXK9Y_Jlp3-4" value="" style="edgeStyle=orthogonalEdgeStyle;rounded=0;orthogonalLoop=1;jettySize=auto;html=1;" edge="1" parent="1" target="Fzv8mW8F8iBXK9Y_Jlp3-1">
          <mxGeometry relative="1" as="geometry">
            <mxPoint x="240" y="240" as="sourcePoint" />
          </mxGeometry>
        </mxCell>
        <mxCell id="ik8RGoKKq35oZd-V-prC-5" value="" style="edgeStyle=orthogonalEdgeStyle;rounded=0;orthogonalLoop=1;jettySize=auto;html=1;shadow=0;" edge="1" parent="1" source="ik8RGoKKq35oZd-V-prC-6" target="ik8RGoKKq35oZd-V-prC-8">
          <mxGeometry relative="1" as="geometry" />
        </mxCell>
        <mxCell id="ik8RGoKKq35oZd-V-prC-6" value="&lt;blockquote style=&quot;margin: 0 0 0 40px; border: none; padding: 0px;&quot;&gt;&lt;span style=&quot;font-family: Tahoma;&quot;&gt;&lt;font style=&quot;font-size: 14px;&quot;&gt;input customerName,&lt;/font&gt;&lt;/span&gt;&lt;div&gt;&lt;span style=&quot;background-color: initial; font-family: Tahoma; font-size: 14px;&quot;&gt;&lt;span style=&quot;white-space: pre;&quot;&gt;&#x9;&lt;/span&gt;numberBathrooms,&lt;/span&gt;&lt;/div&gt;&lt;div&gt;&lt;span style=&quot;font-size: 14px; font-family: Tahoma; background-color: initial;&quot;&gt;&lt;span style=&quot;white-space: pre;&quot;&gt;&#x9;&lt;/span&gt;numberOtherRooms&lt;/span&gt;&lt;/div&gt;&lt;/blockquote&gt;" style="shape=parallelogram;perimeter=parallelogramPerimeter;whiteSpace=wrap;html=1;fixedSize=1;shadow=0;align=left;" vertex="1" parent="1">
          <mxGeometry x="120" y="480" width="240" height="80" as="geometry" />
        </mxCell>
        <mxCell id="ik8RGoKKq35oZd-V-prC-7" value="" style="edgeStyle=orthogonalEdgeStyle;rounded=0;orthogonalLoop=1;jettySize=auto;html=1;shadow=0;entryX=0.5;entryY=0;entryDx=0;entryDy=0;" edge="1" parent="1" source="ik8RGoKKq35oZd-V-prC-8" target="Fzv8mW8F8iBXK9Y_Jlp3-10">
          <mxGeometry relative="1" as="geometry">
            <mxPoint x="240" y="760" as="targetPoint" />
          </mxGeometry>
        </mxCell>
        <mxCell id="ik8RGoKKq35oZd-V-prC-8" value="&lt;blockquote style=&quot;margin: 0 0 0 40px; border: none; padding: 0px;&quot;&gt;&lt;font face=&quot;Tahoma&quot;&gt;&lt;span style=&quot;font-size: 14px;&quot;&gt;output&lt;/span&gt;&lt;/font&gt;&lt;div&gt;&lt;font face=&quot;Tahoma&quot;&gt;&lt;span style=&quot;font-size: 14px;&quot;&gt;&lt;span style=&quot;white-space: pre;&quot;&gt;&#x9;&lt;/span&gt;&lt;/span&gt;&lt;/font&gt;&lt;span style=&quot;font-family: Tahoma; font-size: 14px; background-color: initial;&quot;&gt;customerName,&lt;/span&gt;&lt;/div&gt;&lt;div&gt;&lt;span style=&quot;font-family: Tahoma; font-size: 14px; background-color: initial;&quot;&gt;&lt;span style=&quot;white-space: pre;&quot;&gt;&#x9;&lt;/span&gt;bathroomCost,&lt;/span&gt;&lt;/div&gt;&lt;div&gt;&lt;span style=&quot;font-family: Tahoma; font-size: 14px; background-color: initial;&quot;&gt;&lt;span style=&quot;white-space: pre;&quot;&gt;&#x9;&lt;/span&gt;otherRoomCost,&lt;/span&gt;&lt;/div&gt;&lt;div&gt;&lt;span style=&quot;font-family: Tahoma; font-size: 14px; background-color: initial;&quot;&gt;&lt;span style=&quot;white-space: pre;&quot;&gt;&#x9;&lt;/span&gt;totalCost&lt;br&gt;&lt;/span&gt;&lt;/div&gt;&lt;div&gt;&lt;span style=&quot;font-family: Tahoma; font-size: 14px; background-color: initial;&quot;&gt;&lt;span style=&quot;white-space: pre;&quot;&gt;&#x9;&lt;/span&gt;programComplete,&lt;/span&gt;&lt;/div&gt;&lt;div&gt;&lt;span style=&quot;font-family: Tahoma; font-size: 14px; background-color: initial;&quot;&gt;&lt;span style=&quot;white-space: pre;&quot;&gt;&#x9;&lt;/span&gt;programRestart&lt;/span&gt;&lt;/div&gt;&lt;/blockquote&gt;" style="rounded=0;whiteSpace=wrap;html=1;shadow=0;align=left;" vertex="1" parent="1">
          <mxGeometry x="120" y="600" width="240" height="160" as="geometry" />
        </mxCell>
        <mxCell id="ik8RGoKKq35oZd-V-prC-9" value="" style="edgeStyle=orthogonalEdgeStyle;rounded=0;orthogonalLoop=1;jettySize=auto;html=1;shadow=0;entryX=0.5;entryY=0;entryDx=0;entryDy=0;" edge="1" parent="1" target="ik8RGoKKq35oZd-V-prC-11">
          <mxGeometry relative="1" as="geometry">
            <mxPoint x="239.41" y="920" as="sourcePoint" />
            <mxPoint x="239.41" y="1010" as="targetPoint" />
            <Array as="points">
              <mxPoint x="239" y="1000" />
            </Array>
          </mxGeometry>
        </mxCell>
        <mxCell id="Fzv8mW8F8iBXK9Y_Jlp3-14" value="&lt;font style=&quot;font-size: 14px;&quot;&gt;Yes&lt;/font&gt;" style="edgeLabel;html=1;align=center;verticalAlign=middle;resizable=0;points=[];" vertex="1" connectable="0" parent="ik8RGoKKq35oZd-V-prC-9">
          <mxGeometry x="-0.0601" y="1" relative="1" as="geometry">
            <mxPoint y="23" as="offset" />
          </mxGeometry>
        </mxCell>
        <mxCell id="ik8RGoKKq35oZd-V-prC-11" value="&lt;font face=&quot;Tahoma&quot;&gt;&lt;span style=&quot;font-size: 16px;&quot;&gt;Stop&lt;/span&gt;&lt;/font&gt;" style="ellipse;whiteSpace=wrap;html=1;shadow=0;" vertex="1" parent="1">
          <mxGeometry x="160" y="1020" width="160" height="80" as="geometry" />
        </mxCell>
        <mxCell id="Fzv8mW8F8iBXK9Y_Jlp3-6" value="" style="edgeStyle=orthogonalEdgeStyle;rounded=0;orthogonalLoop=1;jettySize=auto;html=1;" edge="1" parent="1" source="Fzv8mW8F8iBXK9Y_Jlp3-1" target="Fzv8mW8F8iBXK9Y_Jlp3-5">
          <mxGeometry relative="1" as="geometry" />
        </mxCell>
        <mxCell id="Fzv8mW8F8iBXK9Y_Jlp3-1" value="&lt;span style=&quot;background-color: initial; font-family: Tahoma; font-size: 14px;&quot;&gt;Get customer name, number of bathrooms, number of other rooms&lt;/span&gt;&lt;br&gt;&lt;div style=&quot;&quot;&gt;&lt;span style=&quot;background-color: initial; font-family: Tahoma; font-size: 14px;&quot;&gt;Assign costs for each bathroom and each other room&lt;/span&gt;&lt;/div&gt;&lt;div&gt;&lt;span style=&quot;background-color: initial; font-family: Tahoma; font-size: 14px;&quot;&gt;Calculate costs for cleaning bathrooms and other rooms&lt;/span&gt;&lt;br&gt;&lt;div style=&quot;&quot;&gt;&lt;span style=&quot;font-family: Tahoma;&quot;&gt;&lt;font style=&quot;font-size: 14px;&quot;&gt;Return customer name, number of bathrooms with cost, number of other rooms with cost, and total cost for cleaning visit&lt;/font&gt;&lt;/span&gt;&lt;/div&gt;&lt;/div&gt;" style="rounded=0;whiteSpace=wrap;html=1;shadow=0;align=center;" vertex="1" parent="1">
          <mxGeometry y="120" width="480" height="120" as="geometry" />
        </mxCell>
        <mxCell id="Fzv8mW8F8iBXK9Y_Jlp3-7" value="" style="edgeStyle=orthogonalEdgeStyle;rounded=0;orthogonalLoop=1;jettySize=auto;html=1;" edge="1" parent="1" source="Fzv8mW8F8iBXK9Y_Jlp3-5" target="ik8RGoKKq35oZd-V-prC-6">
          <mxGeometry relative="1" as="geometry" />
        </mxCell>
        <mxCell id="Fzv8mW8F8iBXK9Y_Jlp3-5" value="&lt;span style=&quot;background-color: initial; font-family: Tahoma; font-size: 14px;&quot;&gt;Declarations&lt;/span&gt;&lt;div&gt;&lt;span style=&quot;background-color: initial; font-family: Tahoma; font-size: 14px;&quot;&gt;&lt;span style=&quot;white-space: pre;&quot;&gt;&#x9;&lt;/span&gt;string customerName&lt;/span&gt;&lt;/div&gt;&lt;div&gt;&lt;span style=&quot;background-color: initial; font-family: Tahoma; font-size: 14px;&quot;&gt;&lt;span style=&quot;white-space: pre;&quot;&gt;&#x9;&lt;/span&gt;num numberBathroom = 0&lt;/span&gt;&lt;/div&gt;&lt;div&gt;&lt;span style=&quot;background-color: initial; font-family: Tahoma; font-size: 14px;&quot;&gt;&lt;span style=&quot;white-space: pre;&quot;&gt;&#x9;&lt;/span&gt;num numberOtherRoom = 0&lt;/span&gt;&lt;/div&gt;&lt;div&gt;&lt;font face=&quot;Tahoma&quot;&gt;&lt;span style=&quot;font-size: 14px;&quot;&gt;&lt;span style=&quot;white-space: pre;&quot;&gt;&#x9;&lt;/span&gt;num bathroomCost = 15 *&amp;nbsp;&lt;/span&gt;&lt;/font&gt;&lt;span style=&quot;font-family: Tahoma; font-size: 14px; background-color: initial;&quot;&gt;numberBathroom&lt;/span&gt;&lt;/div&gt;&lt;div&gt;&lt;font face=&quot;Tahoma&quot;&gt;&lt;span style=&quot;font-size: 14px;&quot;&gt;&lt;span style=&quot;white-space: pre;&quot;&gt;&#x9;&lt;/span&gt;num otherRoomCost = 10 *&amp;nbsp;&lt;/span&gt;&lt;/font&gt;&lt;span style=&quot;font-family: Tahoma; font-size: 14px; background-color: initial;&quot;&gt;numberOtherRoom&lt;/span&gt;&lt;/div&gt;&lt;div&gt;&lt;font face=&quot;Tahoma&quot;&gt;&lt;span style=&quot;font-size: 14px;&quot;&gt;&lt;span style=&quot;white-space: pre;&quot;&gt;&#x9;&lt;/span&gt;num totalCost = 40 + bathroomCost + otherRoomCost&lt;/span&gt;&lt;/font&gt;&lt;br&gt;&lt;/div&gt;&lt;div&gt;&lt;font face=&quot;Tahoma&quot;&gt;&lt;span style=&quot;font-size: 14px;&quot;&gt;&lt;span style=&quot;white-space: pre;&quot;&gt;&#x9;&lt;/span&gt;string programComplete = &quot;Program Complete.&quot;&lt;br&gt;&lt;/span&gt;&lt;/font&gt;&lt;/div&gt;&lt;div&gt;&lt;font face=&quot;Tahoma&quot;&gt;&lt;span style=&quot;font-size: 14px;&quot;&gt;&lt;span style=&quot;white-space: pre;&quot;&gt;&#x9;&lt;/span&gt;string programRestart = &quot;Would you like to run the program again?&quot;&lt;br&gt;&lt;/span&gt;&lt;/font&gt;&lt;/div&gt;" style="rounded=0;whiteSpace=wrap;html=1;shadow=0;align=left;" vertex="1" parent="1">
          <mxGeometry y="280" width="480" height="160" as="geometry" />
        </mxCell>
        <mxCell id="Fzv8mW8F8iBXK9Y_Jlp3-20" style="edgeStyle=orthogonalEdgeStyle;rounded=0;orthogonalLoop=1;jettySize=auto;html=1;entryX=1;entryY=0.5;entryDx=0;entryDy=0;" edge="1" parent="1" source="Fzv8mW8F8iBXK9Y_Jlp3-10" target="Fzv8mW8F8iBXK9Y_Jlp3-5">
          <mxGeometry relative="1" as="geometry">
            <Array as="points">
              <mxPoint x="600" y="870" />
              <mxPoint x="600" y="360" />
            </Array>
          </mxGeometry>
        </mxCell>
        <mxCell id="Fzv8mW8F8iBXK9Y_Jlp3-21" value="&lt;font style=&quot;font-size: 14px;&quot;&gt;No&lt;/font&gt;" style="edgeLabel;html=1;align=center;verticalAlign=middle;resizable=0;points=[];" vertex="1" connectable="0" parent="Fzv8mW8F8iBXK9Y_Jlp3-20">
          <mxGeometry x="-0.8409" y="-1" relative="1" as="geometry">
            <mxPoint x="-4" y="-1" as="offset" />
          </mxGeometry>
        </mxCell>
        <mxCell id="Fzv8mW8F8iBXK9Y_Jlp3-10" value="&lt;font style=&quot;font-size: 14px;&quot;&gt;Don&#39;t restart program?&lt;/font&gt;" style="rhombus;whiteSpace=wrap;html=1;" vertex="1" parent="1">
          <mxGeometry x="120" y="780" width="240" height="180" as="geometry" />
        </mxCell>
      </root>
    </mxGraphModel>
  </diagram>
</mxfile>
